<svg xmlns="http://www.w3.org/2000/svg" shape-rendering="optimizeSpeed" viewBox="0 0 606 1945"><path fill="#a5d6a7" stroke="#444" d="M50 80h245v30H50zM60 80v30M285 80v30"/><text x="75" y="100" fill="#222" font-family="monospace" font-size="13"><tspan x="75" y="100">function validateCpf(cpf)</tspan></text><path fill="#a5d6a7" stroke="#444" d="M87 129h331v30H87zM97 129v30M408 129v30"/><text x="112" y="149" fill="#222" font-family="monospace" font-size="13"><tspan x="112" y="149">function getVerificationDigit(value)</tspan></text><rect width="209.4" height="30" x="124" y="177" fill="#90caf9" stroke="#444" rx="3" ry="3"/><text x="139" y="197" fill="#222" font-family="monospace" font-size="13"><tspan x="139" y="197">const rest = value % 11</tspan></text><rect width="76.8" height="30" x="124" y="226" fill="#90caf9" stroke="#444" rx="3" ry="3"/><path fill="#a5d6a7" stroke="#444" d="M201 236h5M201 246h5M206 230l16 11-16 11z"/><text x="139" y="246" fill="#222" font-family="monospace" font-size="13"><tspan x="139" y="246">return</tspan></text><rect width="138" height="30" x="191" y="289" fill="#ce93d8" stroke="#444" rx="3" ry="3"/><path fill="#ce93d8" stroke="#444" d="M161 304l30-30 30 30-30 30z"/><text x="236" y="309" fill="#222" font-family="monospace" font-size="13"><tspan x="236" y="309">(rest &lt; 2)</tspan></text><text x="187" y="309" fill="#222" font-family="monospace" font-size="13">?</text><text x="199" y="336" fill="#222" font-family="monospace" font-size="13">+</text><text x="333" y="302" fill="#222" font-family="monospace" font-size="13">-</text><rect width="37.8" height="30" x="211" y="344" fill="#90caf9" stroke="#444" rx="3" ry="3"/><text x="226" y="364" fill="#222" font-family="monospace" font-size="13"><tspan x="226" y="364">0</tspan></text><rect width="100.2" height="30" x="389" y="344" fill="#90caf9" stroke="#444" rx="3" ry="3"/><text x="404" y="364" fill="#222" font-family="monospace" font-size="13"><tspan x="404" y="364">11 - rest</tspan></text><path fill="#a5d6a7" stroke="#444" d="M87 409h307v30H87zM97 409v30M384 409v30"/><text x="112" y="429" fill="#222" font-family="monospace" font-size="13"><tspan x="112" y="429">function sumDigits(first, second)</tspan></text><rect width="193.8" height="30" x="124" y="458" fill="#90caf9" stroke="#444" rx="3" ry="3"/><path fill="#a5d6a7" stroke="#444" d="M318 468h5M318 478h5M323 462l16 11-16 11z"/><text x="139" y="478" fill="#222" font-family="monospace" font-size="13"><tspan x="139" y="478">return first + second</tspan></text><path fill="#a5d6a7" stroke="#444" d="M87 521h292v30H87zM97 521v30M369 521v30"/><text x="112" y="541" fill="#222" font-family="monospace" font-size="13"><tspan x="112" y="541">function multiplyDigits(factor)</tspan></text><rect width="76.8" height="30" x="124" y="570" fill="#90caf9" stroke="#444" rx="3" ry="3"/><path fill="#a5d6a7" stroke="#444" d="M201 580h5M201 590h5M206 574l16 11-16 11z"/><text x="139" y="590" fill="#222" font-family="monospace" font-size="13"><tspan x="139" y="590">return</tspan></text><path fill="#a5d6a7" stroke="#444" d="M161 633h222v30H161zM171 633v30M373 633v30"/><text x="186" y="653" fill="#222" font-family="monospace" font-size="13"><tspan x="186" y="653">function(digit, index)</tspan></text><rect width="334.2" height="30" x="198" y="682" fill="#90caf9" stroke="#444" rx="3" ry="3"/><path fill="#a5d6a7" stroke="#444" d="M532 692h5M532 702h5M537 686l16 11-16 11z"/><text x="213" y="702" fill="#222" font-family="monospace" font-size="13"><tspan x="213" y="702">return Number(digit) * (factor - index)</tspan></text><rect width="279.6" height="30" x="87" y="730" fill="#90caf9" stroke="#444" rx="3" ry="3"/><text x="102" y="750" fill="#222" font-family="monospace" font-size="13"><tspan x="102" y="750">const cleanCpf = [object Object]</tspan></text><rect width="239.4" height="30" x="117" y="794" fill="#ce93d8" stroke="#444" rx="3" ry="3"/><path fill="#ce93d8" stroke="#444" d="M87 809l30-30 30 30-30 30z"/><text x="162" y="814" fill="#222" font-family="monospace" font-size="13"><tspan x="162" y="814">(cleanCpf.length == 11)</tspan></text><text x="109" y="814" fill="#222" font-family="monospace" font-size="13">if</text><text x="125" y="841" fill="#222" font-family="monospace" font-size="13">+</text><rect width="192.6" height="30" x="167" y="864" fill="#ce93d8" stroke="#444" rx="3" ry="3"/><path fill="#ce93d8" stroke="#444" d="M137 879l30-30 30 30-30 30z"/><text x="212" y="884" fill="#222" font-family="monospace" font-size="13"><tspan x="212" y="884">switch (cleanCpf)</tspan></text><text x="159" y="884" fill="#222" font-family="monospace" font-size="13">if</text><text x="175" y="911" fill="#222" font-family="monospace" font-size="13">+</text><g><rect width="178.2" height="30" x="187" y="919" fill="#ce93d8" stroke="#444" rx="2" ry="2"/><text x="202" y="939" fill="#222" font-family="monospace" font-size="13"><tspan x="202" y="939">case &quot; &quot;:</tspan></text></g><g><rect width="178.2" height="30" x="187" y="967" fill="#ce93d8" stroke="#444" rx="2" ry="2"/><text x="202" y="987" fill="#222" font-family="monospace" font-size="13"><tspan x="202" y="987">case &quot;00000000000&quot;:</tspan></text></g><g><rect width="178.2" height="30" x="187" y="1016" fill="#ce93d8" stroke="#444" rx="2" ry="2"/><text x="202" y="1036" fill="#222" font-family="monospace" font-size="13"><tspan x="202" y="1036">case &quot;11111111111&quot;:</tspan></text></g><g><rect width="178.2" height="30" x="187" y="1064" fill="#ce93d8" stroke="#444" rx="2" ry="2"/><text x="202" y="1084" fill="#222" font-family="monospace" font-size="13"><tspan x="202" y="1084">case &quot;22222222222&quot;:</tspan></text></g><g><rect width="178.2" height="30" x="187" y="1113" fill="#ce93d8" stroke="#444" rx="2" ry="2"/><text x="202" y="1133" fill="#222" font-family="monospace" font-size="13"><tspan x="202" y="1133">case &quot;33333333333&quot;:</tspan></text></g><g><rect width="178.2" height="30" x="187" y="1161" fill="#ce93d8" stroke="#444" rx="2" ry="2"/><text x="202" y="1181" fill="#222" font-family="monospace" font-size="13"><tspan x="202" y="1181">case &quot;44444444444&quot;:</tspan></text></g><g><rect width="178.2" height="30" x="187" y="1210" fill="#ce93d8" stroke="#444" rx="2" ry="2"/><text x="202" y="1230" fill="#222" font-family="monospace" font-size="13"><tspan x="202" y="1230">case &quot;55555555555&quot;:</tspan></text></g><g><rect width="178.2" height="30" x="187" y="1258" fill="#ce93d8" stroke="#444" rx="2" ry="2"/><text x="202" y="1278" fill="#222" font-family="monospace" font-size="13"><tspan x="202" y="1278">case &quot;66666666666&quot;:</tspan></text></g><g><rect width="178.2" height="30" x="187" y="1307" fill="#ce93d8" stroke="#444" rx="2" ry="2"/><text x="202" y="1327" fill="#222" font-family="monospace" font-size="13"><tspan x="202" y="1327">case &quot;77777777777&quot;:</tspan></text></g><g><rect width="178.2" height="30" x="187" y="1355" fill="#ce93d8" stroke="#444" rx="2" ry="2"/><text x="202" y="1375" fill="#222" font-family="monospace" font-size="13"><tspan x="202" y="1375">case &quot;88888888888&quot;:</tspan></text></g><g><rect width="178.2" height="30" x="187" y="1404" fill="#ce93d8" stroke="#444" rx="2" ry="2"/><text x="202" y="1424" fill="#222" font-family="monospace" font-size="13"><tspan x="202" y="1424">case &quot;99999999999&quot;:</tspan></text></g><g><rect width="123.6" height="30" x="224" y="1452" fill="#90caf9" stroke="#444" rx="3" ry="3"/><path fill="#a5d6a7" stroke="#444" d="M348 1462h5M348 1472h5M353 1456l16 11-16 11z"/><text x="239" y="1472" fill="#222" font-family="monospace" font-size="13"><tspan x="239" y="1472">return false</tspan></text></g><g><rect width="443.4" height="30" x="137" y="1501" fill="#90caf9" stroke="#444" rx="3" ry="3"/><text x="152" y="1521" fill="#222" font-family="monospace" font-size="13"><tspan x="152" y="1521">const brokenCpf = cleanCpf.match(/^(\d{9})(\d{2})$...</tspan></text></g><g><rect width="373.2" height="30" x="137" y="1549" fill="#90caf9" stroke="#444" rx="3" ry="3"/><text x="152" y="1569" fill="#222" font-family="monospace" font-size="13"><tspan x="152" y="1569">const withoutDigits = brokenCpf[1].split(&quot;&quot;)</tspan></text></g><g><rect width="240.6" height="30" x="137" y="1598" fill="#90caf9" stroke="#444" rx="3" ry="3"/><text x="152" y="1618" fill="#222" font-family="monospace" font-size="13"><tspan x="152" y="1618">const digits = brokenCpf[2]</tspan></text></g><g><rect width="310.8" height="30" x="137" y="1646" fill="#90caf9" stroke="#444" rx="3" ry="3"/><text x="152" y="1666" fill="#222" font-family="monospace" font-size="13"><tspan x="152" y="1666">let tempFirstDigit = [object Object]</tspan></text></g><g><rect width="443.4" height="30" x="137" y="1695" fill="#90caf9" stroke="#444" rx="3" ry="3"/><text x="152" y="1715" fill="#222" font-family="monospace" font-size="13"><tspan x="152" y="1715">const firstDigit = getVerificationDigit(tempFirstD...</tspan></text></g><g><rect width="318.6" height="30" x="137" y="1743" fill="#90caf9" stroke="#444" rx="3" ry="3"/><text x="152" y="1763" fill="#222" font-family="monospace" font-size="13"><tspan x="152" y="1763">let tempSecondDigit = [object Object]</tspan></text></g><g><rect width="443.4" height="30" x="137" y="1792" fill="#90caf9" stroke="#444" rx="3" ry="3"/><text x="152" y="1812" fill="#222" font-family="monospace" font-size="13"><tspan x="152" y="1812">const secondDigit = getVerificationDigit(tempSecon...</tspan></text></g><g><rect width="420" height="30" x="137" y="1840" fill="#90caf9" stroke="#444" rx="3" ry="3"/><path fill="#a5d6a7" stroke="#444" d="M557 1850h5M557 1860h5M562 1844l16 11-16 11z"/><text x="152" y="1860" fill="#222" font-family="monospace" font-size="13"><tspan x="152" y="1860">return String(firstDigit) + secondDigit === digits</tspan></text></g><g><rect width="123.6" height="30" x="87" y="1890" fill="#90caf9" stroke="#444" rx="3" ry="3"/><path fill="#a5d6a7" stroke="#444" d="M211 1900h5M211 1910h5M216 1894l16 11-16 11z"/><text x="102" y="1910" fill="#222" font-family="monospace" font-size="13"><tspan x="102" y="1910">return false</tspan></text></g><g><path fill="#fff59d" stroke="#444" d="M25 14h217v24H25z"/><circle cx="25" cy="25" r="15" fill="#fff59d" stroke="#444"/><text x="55" y="30" fill="#222" font-family="monospace" font-size="13"><tspan x="55" y="30">Program: source module</tspan></text></g><g><path fill="none" stroke="#444" d="M25 40v51q0 4 4 4h13"/><path fill="#333" d="M42 92l8 3-8 3z"/></g><g><path fill="none" stroke="#444" d="M69 110v30q0 4 4 4h6"/><path fill="#333" d="M79 141l8 3-8 3z"/></g><g><path fill="none" stroke="#444" d="M106 159v29q0 4 4 4h6"/><path fill="#333" d="M116 189l8 3-8 3z"/></g><g><path fill="none" stroke="#444" d="M106 159v78q0 4 4 4h6"/><path fill="#333" d="M116 238l8 3-8 3z"/></g><g><path fill="none" stroke="#444" d="M143 256v44q0 4 4 4h6"/><path fill="#333" d="M153 301l8 3-8 3z"/></g><g><path fill="none" stroke="#444" d="M191 334v21q0 4 4 4h8"/><path fill="#333" d="M203 356l8 3-8 3z"/></g><g><path fill="none" stroke="#444" d="M329 304h36q4 0 4 4v43q0 8 4 8h8"/><path fill="#333" d="M381 356l8 3-8 3z"/></g><g><path fill="none" stroke="#444" d="M69 110v310q0 4 4 4h6"/><path fill="#333" d="M79 421l8 3-8 3z"/></g><g><path fill="none" stroke="#444" d="M106 439v30q0 4 4 4h6"/><path fill="#333" d="M116 470l8 3-8 3z"/></g><g><path fill="none" stroke="#444" d="M69 110v422q0 4 4 4h6"/><path fill="#333" d="M79 533l8 3-8 3z"/></g><g><path fill="none" stroke="#444" d="M106 551v30q0 4 4 4h6"/><path fill="#333" d="M116 582l8 3-8 3z"/></g><g><path fill="none" stroke="#444" d="M143 600v44q0 4 4 4h6"/><path fill="#333" d="M153 645l8 3-8 3z"/></g><g><path fill="none" stroke="#444" d="M180 663v30q0 4 4 4h6"/><path fill="#333" d="M190 694l8 3-8 3z"/></g><g><path fill="none" stroke="#444" d="M69 110v631q0 4 4 4h6"/><path fill="#333" d="M79 742l8 3-8 3z"/></g><g><path fill="none" stroke="#444" d="M69 110v695q0 4 4 4h6"/><path fill="#333" d="M79 806l8 3-8 3z"/></g><g><path fill="none" stroke="#444" d="M117 839v36q0 4 4 4h8"/><path fill="#333" d="M129 876l8 3-8 3z"/></g><g><path fill="none" stroke="#444" d="M167 909v21q0 4 4 4h8"/><path fill="#333" d="M179 931l8 3-8 3z"/></g><g><path fill="none" stroke="#444" d="M167 909v69q0 4 4 4h8"/><path fill="#333" d="M179 979l8 3-8 3z"/></g><g><path fill="none" stroke="#444" d="M167 909v118q0 4 4 4h8"/><path fill="#333" d="M179 1028l8 3-8 3z"/></g><g><path fill="none" stroke="#444" d="M167 909v166q0 4 4 4h8"/><path fill="#333" d="M179 1076l8 3-8 3z"/></g><g><path fill="none" stroke="#444" d="M167 909v215q0 4 4 4h8"/><path fill="#333" d="M179 1125l8 3-8 3z"/></g><g><path fill="none" stroke="#444" d="M167 909v263q0 4 4 4h8"/><path fill="#333" d="M179 1173l8 3-8 3z"/></g><g><path fill="none" stroke="#444" d="M167 909v312q0 4 4 4h8"/><path fill="#333" d="M179 1222l8 3-8 3z"/></g><g><path fill="none" stroke="#444" d="M167 909v360q0 4 4 4h8"/><path fill="#333" d="M179 1270l8 3-8 3z"/></g><g><path fill="none" stroke="#444" d="M167 909v409q0 4 4 4h8"/><path fill="#333" d="M179 1319l8 3-8 3z"/></g><g><path fill="none" stroke="#444" d="M167 909v457q0 4 4 4h8"/><path fill="#333" d="M179 1367l8 3-8 3z"/></g><g><path fill="none" stroke="#444" d="M167 909v506q0 4 4 4h8"/><path fill="#333" d="M179 1416l8 3-8 3z"/></g><g><path fill="none" stroke="#444" d="M206 1434v29q0 4 4 4h6"/><path fill="#333" d="M216 1464l8 3-8 3z"/></g><g><path fill="none" stroke="#444" d="M117 839v673q0 4 4 4h8"/><path fill="#333" d="M129 1513l8 3-8 3z"/></g><g><path fill="none" stroke="#444" d="M117 839v721q0 4 4 4h8"/><path fill="#333" d="M129 1561l8 3-8 3z"/></g><g><path fill="none" stroke="#444" d="M117 839v770q0 4 4 4h8"/><path fill="#333" d="M129 1610l8 3-8 3z"/></g><g><path fill="none" stroke="#444" d="M117 839v818q0 4 4 4h8"/><path fill="#333" d="M129 1658l8 3-8 3z"/></g><g><path fill="none" stroke="#444" d="M117 839v867q0 4 4 4h8"/><path fill="#333" d="M129 1707l8 3-8 3z"/></g><g><path fill="none" stroke="#444" d="M117 839v915q0 4 4 4h8"/><path fill="#333" d="M129 1755l8 3-8 3z"/></g><g><path fill="none" stroke="#444" d="M117 839v964q0 4 4 4h8"/><path fill="#333" d="M129 1804l8 3-8 3z"/></g><g><path fill="none" stroke="#444" d="M117 839v1012q0 4 4 4h8"/><path fill="#333" d="M129 1852l8 3-8 3z"/></g><g><path fill="none" stroke="#444" d="M69 110v1791q0 4 4 4h6"/><path fill="#333" d="M79 1902l8 3-8 3z"/></g></svg>