
                <svg xmlns="http://www.w3.org/2000/svg" xmlns:xlink="http://www.w3.org/1999/xlink" width="606" height="1945" shape-rendering="optimizeSpeed">
                
            <g>
                <rect x="50" y="80" width="245" height="30" style="fill:#a5d6a7; stroke:#444; stroke-width:1"></rect>
                    
                <line x1="60" y1="80" x2="60" y2="110" style="fill:#a5d6a7; stroke:#444; stroke-width:1"></line>
                <line x1="285" y1="80" x2="285" y2="110" style="fill:#a5d6a7; stroke:#444; stroke-width:1"></line>
             
                <title>function validateCpf(cpf)</title>
            <text x="75" y="100" font-family="monospace" font-size="13" fill="#222">
                <tspan x="75" y="100">function validateCpf(cpf)</tspan>
            </text>
                
            </g>
            <g>
                <rect x="87" y="128.5" width="330.8" height="30" style="fill:#a5d6a7; stroke:#444; stroke-width:1"></rect>
                    
                <line x1="97" y1="128.5" x2="97" y2="158.5" style="fill:#a5d6a7; stroke:#444; stroke-width:1"></line>
                <line x1="407.8" y1="128.5" x2="407.8" y2="158.5" style="fill:#a5d6a7; stroke:#444; stroke-width:1"></line>
             
                <title>function getVerificationDigit(value)</title>
            <text x="112" y="148.5" font-family="monospace" font-size="13" fill="#222">
                <tspan x="112" y="148.5">function getVerificationDigit(value)</tspan>
            </text>
                
            </g>
                <g>
                   <rect x="124" y="177" width="209.4" height="30" rx="3" ry="3" style="fill:#90caf9; stroke:#444; stroke-width:1"></rect>
                   <title>const rest = value % 11</title>
            <text x="139" y="197" font-family="monospace" font-size="13" fill="#222">
                <tspan x="139" y="197">const rest = value % 11</tspan>
            </text>
                   
                   
                </g>
            <g>
                <rect x="124" y="225.5" width="76.8" height="30" rx="3" ry="3" style="fill:#90caf9; stroke:#444; stroke-width:1"></rect>
                
                <line x1="200.8" y1="235.5" x2="205.8" y2="235.5" style="fill:#a5d6a7; stroke:#444; stroke-width:1"></line>
                
                <line x1="200.8" y1="245.5" x2="205.8" y2="245.5" style="fill:#a5d6a7; stroke:#444; stroke-width:1"></line>

                <path d="M205.8, 229.5 L221.8, 240.5 L205.8, 251.5 Z" fill="#a5d6a7" stroke="#444" stroke-width="1"></path>
                             
                <title>return</title>
            <text x="139" y="245.5" font-family="monospace" font-size="13" fill="#222">
                <tspan x="139" y="245.5">return</tspan>
            </text>
                
            </g><g>
            <rect x="191" y="289" width="138" height="30" rx="3" ry="3" style="fill:#ce93d8; stroke:#444; stroke-width:1"></rect>                
            <polygon points="161,304 191,274 221,304 191,334" style="fill:#ce93d8; stroke:#444; stroke-width:1"></polygon>
            <title>(rest &lt; 2)</title>
            <text x="236" y="309" font-family="monospace" font-size="13" fill="#222">
                <tspan x="236" y="309">(rest &lt; 2)</tspan>
            </text>
            
            <text x="187.1" y="309" font-family="monospace" font-size="13" fill="#222">?</text> <text x="198.8" y="335.95" font-family="monospace" font-size="13" fill="#222">+</text> <text x="332.9" y="302.05" font-family="monospace" font-size="13" fill="#222">-</text>
        </g>
                <g>
                   <rect x="211" y="344" width="37.8" height="30" rx="3" ry="3" style="fill:#90caf9; stroke:#444; stroke-width:1"></rect>
                   <title>0</title>
            <text x="226" y="364" font-family="monospace" font-size="13" fill="#222">
                <tspan x="226" y="364">0</tspan>
            </text>
                   
                   
                </g>
                <g>
                   <rect x="389" y="344" width="100.2" height="30" rx="3" ry="3" style="fill:#90caf9; stroke:#444; stroke-width:1"></rect>
                   <title>11 - rest</title>
            <text x="404" y="364" font-family="monospace" font-size="13" fill="#222">
                <tspan x="404" y="364">11 - rest</tspan>
            </text>
                   
                   
                </g>
            <g>
                <rect x="87" y="409" width="307.4" height="30" style="fill:#a5d6a7; stroke:#444; stroke-width:1"></rect>
                    
                <line x1="97" y1="409" x2="97" y2="439" style="fill:#a5d6a7; stroke:#444; stroke-width:1"></line>
                <line x1="384.4" y1="409" x2="384.4" y2="439" style="fill:#a5d6a7; stroke:#444; stroke-width:1"></line>
             
                <title>function sumDigits(first, second)</title>
            <text x="112" y="429" font-family="monospace" font-size="13" fill="#222">
                <tspan x="112" y="429">function sumDigits(first, second)</tspan>
            </text>
                
            </g>
            <g>
                <rect x="124" y="457.5" width="193.79999999999998" height="30" rx="3" ry="3" style="fill:#90caf9; stroke:#444; stroke-width:1"></rect>
                
                <line x1="317.79999999999995" y1="467.5" x2="322.79999999999995" y2="467.5" style="fill:#a5d6a7; stroke:#444; stroke-width:1"></line>
                
                <line x1="317.79999999999995" y1="477.5" x2="322.79999999999995" y2="477.5" style="fill:#a5d6a7; stroke:#444; stroke-width:1"></line>

                <path d="M322.79999999999995, 461.5 L338.79999999999995, 472.5 L322.79999999999995, 483.5 Z" fill="#a5d6a7" stroke="#444" stroke-width="1"></path>
                             
                <title>return first + second</title>
            <text x="139" y="477.5" font-family="monospace" font-size="13" fill="#222">
                <tspan x="139" y="477.5">return first + second</tspan>
            </text>
                
            </g>
            <g>
                <rect x="87" y="521" width="291.79999999999995" height="30" style="fill:#a5d6a7; stroke:#444; stroke-width:1"></rect>
                    
                <line x1="97" y1="521" x2="97" y2="551" style="fill:#a5d6a7; stroke:#444; stroke-width:1"></line>
                <line x1="368.79999999999995" y1="521" x2="368.79999999999995" y2="551" style="fill:#a5d6a7; stroke:#444; stroke-width:1"></line>
             
                <title>function multiplyDigits(factor)</title>
            <text x="112" y="541" font-family="monospace" font-size="13" fill="#222">
                <tspan x="112" y="541">function multiplyDigits(factor)</tspan>
            </text>
                
            </g>
            <g>
                <rect x="124" y="569.5" width="76.8" height="30" rx="3" ry="3" style="fill:#90caf9; stroke:#444; stroke-width:1"></rect>
                
                <line x1="200.8" y1="579.5" x2="205.8" y2="579.5" style="fill:#a5d6a7; stroke:#444; stroke-width:1"></line>
                
                <line x1="200.8" y1="589.5" x2="205.8" y2="589.5" style="fill:#a5d6a7; stroke:#444; stroke-width:1"></line>

                <path d="M205.8, 573.5 L221.8, 584.5 L205.8, 595.5 Z" fill="#a5d6a7" stroke="#444" stroke-width="1"></path>
                             
                <title>return</title>
            <text x="139" y="589.5" font-family="monospace" font-size="13" fill="#222">
                <tspan x="139" y="589.5">return</tspan>
            </text>
                
            </g>
            <g>
                <rect x="161" y="633" width="221.6" height="30" style="fill:#a5d6a7; stroke:#444; stroke-width:1"></rect>
                    
                <line x1="171" y1="633" x2="171" y2="663" style="fill:#a5d6a7; stroke:#444; stroke-width:1"></line>
                <line x1="372.6" y1="633" x2="372.6" y2="663" style="fill:#a5d6a7; stroke:#444; stroke-width:1"></line>
             
                <title>function(digit, index)</title>
            <text x="186" y="653" font-family="monospace" font-size="13" fill="#222">
                <tspan x="186" y="653">function(digit, index)</tspan>
            </text>
                
            </g>
            <g>
                <rect x="198" y="681.5" width="334.2" height="30" rx="3" ry="3" style="fill:#90caf9; stroke:#444; stroke-width:1"></rect>
                
                <line x1="532.2" y1="691.5" x2="537.2" y2="691.5" style="fill:#a5d6a7; stroke:#444; stroke-width:1"></line>
                
                <line x1="532.2" y1="701.5" x2="537.2" y2="701.5" style="fill:#a5d6a7; stroke:#444; stroke-width:1"></line>

                <path d="M537.2, 685.5 L553.2, 696.5 L537.2, 707.5 Z" fill="#a5d6a7" stroke="#444" stroke-width="1"></path>
                             
                <title>return Number(digit) * (factor - index)</title>
            <text x="213" y="701.5" font-family="monospace" font-size="13" fill="#222">
                <tspan x="213" y="701.5">return Number(digit) * (factor - index)</tspan>
            </text>
                
            </g>
                <g>
                   <rect x="87" y="730" width="279.6" height="30" rx="3" ry="3" style="fill:#90caf9; stroke:#444; stroke-width:1"></rect>
                   <title>const cleanCpf = [object Object]</title>
            <text x="102" y="750" font-family="monospace" font-size="13" fill="#222">
                <tspan x="102" y="750">const cleanCpf = [object Object]</tspan>
            </text>
                   
                   
                </g><g>
            <rect x="117" y="793.5" width="239.39999999999998" height="30" rx="3" ry="3" style="fill:#ce93d8; stroke:#444; stroke-width:1"></rect>                
            <polygon points="87,808.5 117,778.5 147,808.5 117,838.5" style="fill:#ce93d8; stroke:#444; stroke-width:1"></polygon>
            <title>(cleanCpf.length == 11)</title>
            <text x="162" y="813.5" font-family="monospace" font-size="13" fill="#222">
                <tspan x="162" y="813.5">(cleanCpf.length == 11)</tspan>
            </text>
            
            <text x="109.2" y="813.5" font-family="monospace" font-size="13" fill="#222">if</text> <text x="124.8" y="840.45" font-family="monospace" font-size="13" fill="#222">+</text> 
        </g><g>
            <rect x="167" y="863.5" width="192.6" height="30" rx="3" ry="3" style="fill:#ce93d8; stroke:#444; stroke-width:1"></rect>                
            <polygon points="137,878.5 167,848.5 197,878.5 167,908.5" style="fill:#ce93d8; stroke:#444; stroke-width:1"></polygon>
            <title>switch (cleanCpf)</title>
            <text x="212" y="883.5" font-family="monospace" font-size="13" fill="#222">
                <tspan x="212" y="883.5">switch (cleanCpf)</tspan>
            </text>
            
            <text x="159.2" y="883.5" font-family="monospace" font-size="13" fill="#222">if</text> <text x="174.8" y="910.45" font-family="monospace" font-size="13" fill="#222">+</text> 
        </g>
                <g>
                   <rect x="187" y="918.5" width="178.2" height="30" rx="2" ry="2" style="fill:#ce93d8; stroke:#444; stroke-width:1"></rect>
                   <title>case "           ":</title>
            <text x="202" y="938.5" font-family="monospace" font-size="13" fill="#222">
                <tspan x="202" y="938.5">case "           ":</tspan>
            </text>
                   
                   
                </g>
                <g>
                   <rect x="187" y="967" width="178.2" height="30" rx="2" ry="2" style="fill:#ce93d8; stroke:#444; stroke-width:1"></rect>
                   <title>case "00000000000":</title>
            <text x="202" y="987" font-family="monospace" font-size="13" fill="#222">
                <tspan x="202" y="987">case "00000000000":</tspan>
            </text>
                   
                   
                </g>
                <g>
                   <rect x="187" y="1015.5" width="178.2" height="30" rx="2" ry="2" style="fill:#ce93d8; stroke:#444; stroke-width:1"></rect>
                   <title>case "11111111111":</title>
            <text x="202" y="1035.5" font-family="monospace" font-size="13" fill="#222">
                <tspan x="202" y="1035.5">case "11111111111":</tspan>
            </text>
                   
                   
                </g>
                <g>
                   <rect x="187" y="1064" width="178.2" height="30" rx="2" ry="2" style="fill:#ce93d8; stroke:#444; stroke-width:1"></rect>
                   <title>case "22222222222":</title>
            <text x="202" y="1084" font-family="monospace" font-size="13" fill="#222">
                <tspan x="202" y="1084">case "22222222222":</tspan>
            </text>
                   
                   
                </g>
                <g>
                   <rect x="187" y="1112.5" width="178.2" height="30" rx="2" ry="2" style="fill:#ce93d8; stroke:#444; stroke-width:1"></rect>
                   <title>case "33333333333":</title>
            <text x="202" y="1132.5" font-family="monospace" font-size="13" fill="#222">
                <tspan x="202" y="1132.5">case "33333333333":</tspan>
            </text>
                   
                   
                </g>
                <g>
                   <rect x="187" y="1161" width="178.2" height="30" rx="2" ry="2" style="fill:#ce93d8; stroke:#444; stroke-width:1"></rect>
                   <title>case "44444444444":</title>
            <text x="202" y="1181" font-family="monospace" font-size="13" fill="#222">
                <tspan x="202" y="1181">case "44444444444":</tspan>
            </text>
                   
                   
                </g>
                <g>
                   <rect x="187" y="1209.5" width="178.2" height="30" rx="2" ry="2" style="fill:#ce93d8; stroke:#444; stroke-width:1"></rect>
                   <title>case "55555555555":</title>
            <text x="202" y="1229.5" font-family="monospace" font-size="13" fill="#222">
                <tspan x="202" y="1229.5">case "55555555555":</tspan>
            </text>
                   
                   
                </g>
                <g>
                   <rect x="187" y="1258" width="178.2" height="30" rx="2" ry="2" style="fill:#ce93d8; stroke:#444; stroke-width:1"></rect>
                   <title>case "66666666666":</title>
            <text x="202" y="1278" font-family="monospace" font-size="13" fill="#222">
                <tspan x="202" y="1278">case "66666666666":</tspan>
            </text>
                   
                   
                </g>
                <g>
                   <rect x="187" y="1306.5" width="178.2" height="30" rx="2" ry="2" style="fill:#ce93d8; stroke:#444; stroke-width:1"></rect>
                   <title>case "77777777777":</title>
            <text x="202" y="1326.5" font-family="monospace" font-size="13" fill="#222">
                <tspan x="202" y="1326.5">case "77777777777":</tspan>
            </text>
                   
                   
                </g>
                <g>
                   <rect x="187" y="1355" width="178.2" height="30" rx="2" ry="2" style="fill:#ce93d8; stroke:#444; stroke-width:1"></rect>
                   <title>case "88888888888":</title>
            <text x="202" y="1375" font-family="monospace" font-size="13" fill="#222">
                <tspan x="202" y="1375">case "88888888888":</tspan>
            </text>
                   
                   
                </g>
                <g>
                   <rect x="187" y="1403.5" width="178.2" height="30" rx="2" ry="2" style="fill:#ce93d8; stroke:#444; stroke-width:1"></rect>
                   <title>case "99999999999":</title>
            <text x="202" y="1423.5" font-family="monospace" font-size="13" fill="#222">
                <tspan x="202" y="1423.5">case "99999999999":</tspan>
            </text>
                   
                   
                </g>
            <g>
                <rect x="224" y="1452" width="123.6" height="30" rx="3" ry="3" style="fill:#90caf9; stroke:#444; stroke-width:1"></rect>
                
                <line x1="347.6" y1="1462" x2="352.6" y2="1462" style="fill:#a5d6a7; stroke:#444; stroke-width:1"></line>
                
                <line x1="347.6" y1="1472" x2="352.6" y2="1472" style="fill:#a5d6a7; stroke:#444; stroke-width:1"></line>

                <path d="M352.6, 1456 L368.6, 1467 L352.6, 1478 Z" fill="#a5d6a7" stroke="#444" stroke-width="1"></path>
                             
                <title>return false</title>
            <text x="239" y="1472" font-family="monospace" font-size="13" fill="#222">
                <tspan x="239" y="1472">return false</tspan>
            </text>
                
            </g>
                <g>
                   <rect x="137" y="1500.5" width="443.4" height="30" rx="3" ry="3" style="fill:#90caf9; stroke:#444; stroke-width:1"></rect>
                   <title>const brokenCpf = cleanCpf.match(/^(\d{9})(\d{2})$/)</title>
            <text x="152" y="1520.5" font-family="monospace" font-size="13" fill="#222">
                <tspan x="152" y="1520.5">const brokenCpf = cleanCpf.match(/^(\d{9})(\d{2})$...</tspan>
            </text>
                   
                   
                </g>
                <g>
                   <rect x="137" y="1549" width="373.2" height="30" rx="3" ry="3" style="fill:#90caf9; stroke:#444; stroke-width:1"></rect>
                   <title>const withoutDigits = brokenCpf[1].split("")</title>
            <text x="152" y="1569" font-family="monospace" font-size="13" fill="#222">
                <tspan x="152" y="1569">const withoutDigits = brokenCpf[1].split("")</tspan>
            </text>
                   
                   
                </g>
                <g>
                   <rect x="137" y="1597.5" width="240.6" height="30" rx="3" ry="3" style="fill:#90caf9; stroke:#444; stroke-width:1"></rect>
                   <title>const digits = brokenCpf[2]</title>
            <text x="152" y="1617.5" font-family="monospace" font-size="13" fill="#222">
                <tspan x="152" y="1617.5">const digits = brokenCpf[2]</tspan>
            </text>
                   
                   
                </g>
                <g>
                   <rect x="137" y="1646" width="310.8" height="30" rx="3" ry="3" style="fill:#90caf9; stroke:#444; stroke-width:1"></rect>
                   <title>let tempFirstDigit = [object Object]</title>
            <text x="152" y="1666" font-family="monospace" font-size="13" fill="#222">
                <tspan x="152" y="1666">let tempFirstDigit = [object Object]</tspan>
            </text>
                   
                   
                </g>
                <g>
                   <rect x="137" y="1694.5" width="443.4" height="30" rx="3" ry="3" style="fill:#90caf9; stroke:#444; stroke-width:1"></rect>
                   <title>const firstDigit = getVerificationDigit(tempFirstDigit)</title>
            <text x="152" y="1714.5" font-family="monospace" font-size="13" fill="#222">
                <tspan x="152" y="1714.5">const firstDigit = getVerificationDigit(tempFirstD...</tspan>
            </text>
                   
                   
                </g>
                <g>
                   <rect x="137" y="1743" width="318.59999999999997" height="30" rx="3" ry="3" style="fill:#90caf9; stroke:#444; stroke-width:1"></rect>
                   <title>let tempSecondDigit = [object Object]</title>
            <text x="152" y="1763" font-family="monospace" font-size="13" fill="#222">
                <tspan x="152" y="1763">let tempSecondDigit = [object Object]</tspan>
            </text>
                   
                   
                </g>
                <g>
                   <rect x="137" y="1791.5" width="443.4" height="30" rx="3" ry="3" style="fill:#90caf9; stroke:#444; stroke-width:1"></rect>
                   <title>const secondDigit = getVerificationDigit(tempSecondDigit)</title>
            <text x="152" y="1811.5" font-family="monospace" font-size="13" fill="#222">
                <tspan x="152" y="1811.5">const secondDigit = getVerificationDigit(tempSecon...</tspan>
            </text>
                   
                   
                </g>
            <g>
                <rect x="137" y="1840" width="420" height="30" rx="3" ry="3" style="fill:#90caf9; stroke:#444; stroke-width:1"></rect>
                
                <line x1="557" y1="1850" x2="562" y2="1850" style="fill:#a5d6a7; stroke:#444; stroke-width:1"></line>
                
                <line x1="557" y1="1860" x2="562" y2="1860" style="fill:#a5d6a7; stroke:#444; stroke-width:1"></line>

                <path d="M562, 1844 L578, 1855 L562, 1866 Z" fill="#a5d6a7" stroke="#444" stroke-width="1"></path>
                             
                <title>return String(firstDigit) + secondDigit === digits</title>
            <text x="152" y="1860" font-family="monospace" font-size="13" fill="#222">
                <tspan x="152" y="1860">return String(firstDigit) + secondDigit === digits</tspan>
            </text>
                
            </g>
            <g>
                <rect x="87" y="1890" width="123.6" height="30" rx="3" ry="3" style="fill:#90caf9; stroke:#444; stroke-width:1"></rect>
                
                <line x1="210.6" y1="1900" x2="215.6" y2="1900" style="fill:#a5d6a7; stroke:#444; stroke-width:1"></line>
                
                <line x1="210.6" y1="1910" x2="215.6" y2="1910" style="fill:#a5d6a7; stroke:#444; stroke-width:1"></line>

                <path d="M215.6, 1894 L231.6, 1905 L215.6, 1916 Z" fill="#a5d6a7" stroke="#444" stroke-width="1"></path>
                             
                <title>return false</title>
            <text x="102" y="1910" font-family="monospace" font-size="13" fill="#222">
                <tspan x="102" y="1910">return false</tspan>
            </text>
                
            </g>
            <g>
               <rect x="25" y="13.75" width="216.6" height="24" style="fill:#fff59d; stroke:#444; stroke-width:1"></rect>
               <circle cx="25" cy="25" r="15" style="fill:#fff59d; stroke:#444; stroke-width:1"></circle>
               <title>Program: source module</title>
            <text x="55" y="30" font-family="monospace" font-size="13" fill="#222">
                <tspan x="55" y="30">Program: source module</tspan>
            </text>
            </g>
            <g>
               <path d="M25, 40 L25 91 Q25 95
                29 95
                L42 95 " style="fill:none; stroke:#444; stroke-width:1"></path>
               <path d="M42, 92 L50, 95 L42, 98 Z" fill="#333"></path>
            </g>
            <g>
               <path d="M68.5, 110 L68.5 139.5 Q68.5 143.5
                72.5 143.5
                L79 143.5 " style="fill:none; stroke:#444; stroke-width:1"></path>
               <path d="M79, 140.5 L87, 143.5 L79, 146.5 Z" fill="#333"></path>
            </g>
            <g>
               <path d="M105.5, 158.5 L105.5 188 Q105.5 192
                109.5 192
                L116 192 " style="fill:none; stroke:#444; stroke-width:1"></path>
               <path d="M116, 189 L124, 192 L116, 195 Z" fill="#333"></path>
            </g>
            <g>
               <path d="M105.5, 158.5 L105.5 236.5 Q105.5 240.5
                109.5 240.5
                L116 240.5 " style="fill:none; stroke:#444; stroke-width:1"></path>
               <path d="M116, 237.5 L124, 240.5 L116, 243.5 Z" fill="#333"></path>
            </g>
            <g>
               <path d="M142.5, 255.5 L142.5 300 Q142.5 304
                146.5 304
                L153 304 " style="fill:none; stroke:#444; stroke-width:1"></path>
               <path d="M153, 301 L161, 304 L153, 307 Z" fill="#333"></path>
            </g>
            <g>
               <path d="M191, 334 L191 355 Q191 359
                195 359
                L203 359 " style="fill:none; stroke:#444; stroke-width:1"></path>
               <path d="M203, 356 L211, 359 L203, 362 Z" fill="#333"></path>
            </g>
            <g>
               <path d="M329, 304 L365 304  Q369 304
                369 308
                L369 351 Q369 359
                373 359
                L381 359 " style="fill:none; stroke:#444; stroke-width:1"></path>
               <path d="M381, 356 L389, 359 L381, 362 Z" fill="#333"></path>
            </g>
            <g>
               <path d="M68.5, 110 L68.5 420 Q68.5 424
                72.5 424
                L79 424 " style="fill:none; stroke:#444; stroke-width:1"></path>
               <path d="M79, 421 L87, 424 L79, 427 Z" fill="#333"></path>
            </g>
            <g>
               <path d="M105.5, 439 L105.5 468.5 Q105.5 472.5
                109.5 472.5
                L116 472.5 " style="fill:none; stroke:#444; stroke-width:1"></path>
               <path d="M116, 469.5 L124, 472.5 L116, 475.5 Z" fill="#333"></path>
            </g>
            <g>
               <path d="M68.5, 110 L68.5 532 Q68.5 536
                72.5 536
                L79 536 " style="fill:none; stroke:#444; stroke-width:1"></path>
               <path d="M79, 533 L87, 536 L79, 539 Z" fill="#333"></path>
            </g>
            <g>
               <path d="M105.5, 551 L105.5 580.5 Q105.5 584.5
                109.5 584.5
                L116 584.5 " style="fill:none; stroke:#444; stroke-width:1"></path>
               <path d="M116, 581.5 L124, 584.5 L116, 587.5 Z" fill="#333"></path>
            </g>
            <g>
               <path d="M142.5, 599.5 L142.5 644 Q142.5 648
                146.5 648
                L153 648 " style="fill:none; stroke:#444; stroke-width:1"></path>
               <path d="M153, 645 L161, 648 L153, 651 Z" fill="#333"></path>
            </g>
            <g>
               <path d="M179.5, 663 L179.5 692.5 Q179.5 696.5
                183.5 696.5
                L190 696.5 " style="fill:none; stroke:#444; stroke-width:1"></path>
               <path d="M190, 693.5 L198, 696.5 L190, 699.5 Z" fill="#333"></path>
            </g>
            <g>
               <path d="M68.5, 110 L68.5 741 Q68.5 745
                72.5 745
                L79 745 " style="fill:none; stroke:#444; stroke-width:1"></path>
               <path d="M79, 742 L87, 745 L79, 748 Z" fill="#333"></path>
            </g>
            <g>
               <path d="M68.5, 110 L68.5 804.5 Q68.5 808.5
                72.5 808.5
                L79 808.5 " style="fill:none; stroke:#444; stroke-width:1"></path>
               <path d="M79, 805.5 L87, 808.5 L79, 811.5 Z" fill="#333"></path>
            </g>
            <g>
               <path d="M117, 838.5 L117 874.5 Q117 878.5
                121 878.5
                L129 878.5 " style="fill:none; stroke:#444; stroke-width:1"></path>
               <path d="M129, 875.5 L137, 878.5 L129, 881.5 Z" fill="#333"></path>
            </g>
            <g>
               <path d="M167, 908.5 L167 929.5 Q167 933.5
                171 933.5
                L179 933.5 " style="fill:none; stroke:#444; stroke-width:1"></path>
               <path d="M179, 930.5 L187, 933.5 L179, 936.5 Z" fill="#333"></path>
            </g>
            <g>
               <path d="M167, 908.5 L167 978 Q167 982
                171 982
                L179 982 " style="fill:none; stroke:#444; stroke-width:1"></path>
               <path d="M179, 979 L187, 982 L179, 985 Z" fill="#333"></path>
            </g>
            <g>
               <path d="M167, 908.5 L167 1026.5 Q167 1030.5
                171 1030.5
                L179 1030.5 " style="fill:none; stroke:#444; stroke-width:1"></path>
               <path d="M179, 1027.5 L187, 1030.5 L179, 1033.5 Z" fill="#333"></path>
            </g>
            <g>
               <path d="M167, 908.5 L167 1075 Q167 1079
                171 1079
                L179 1079 " style="fill:none; stroke:#444; stroke-width:1"></path>
               <path d="M179, 1076 L187, 1079 L179, 1082 Z" fill="#333"></path>
            </g>
            <g>
               <path d="M167, 908.5 L167 1123.5 Q167 1127.5
                171 1127.5
                L179 1127.5 " style="fill:none; stroke:#444; stroke-width:1"></path>
               <path d="M179, 1124.5 L187, 1127.5 L179, 1130.5 Z" fill="#333"></path>
            </g>
            <g>
               <path d="M167, 908.5 L167 1172 Q167 1176
                171 1176
                L179 1176 " style="fill:none; stroke:#444; stroke-width:1"></path>
               <path d="M179, 1173 L187, 1176 L179, 1179 Z" fill="#333"></path>
            </g>
            <g>
               <path d="M167, 908.5 L167 1220.5 Q167 1224.5
                171 1224.5
                L179 1224.5 " style="fill:none; stroke:#444; stroke-width:1"></path>
               <path d="M179, 1221.5 L187, 1224.5 L179, 1227.5 Z" fill="#333"></path>
            </g>
            <g>
               <path d="M167, 908.5 L167 1269 Q167 1273
                171 1273
                L179 1273 " style="fill:none; stroke:#444; stroke-width:1"></path>
               <path d="M179, 1270 L187, 1273 L179, 1276 Z" fill="#333"></path>
            </g>
            <g>
               <path d="M167, 908.5 L167 1317.5 Q167 1321.5
                171 1321.5
                L179 1321.5 " style="fill:none; stroke:#444; stroke-width:1"></path>
               <path d="M179, 1318.5 L187, 1321.5 L179, 1324.5 Z" fill="#333"></path>
            </g>
            <g>
               <path d="M167, 908.5 L167 1366 Q167 1370
                171 1370
                L179 1370 " style="fill:none; stroke:#444; stroke-width:1"></path>
               <path d="M179, 1367 L187, 1370 L179, 1373 Z" fill="#333"></path>
            </g>
            <g>
               <path d="M167, 908.5 L167 1414.5 Q167 1418.5
                171 1418.5
                L179 1418.5 " style="fill:none; stroke:#444; stroke-width:1"></path>
               <path d="M179, 1415.5 L187, 1418.5 L179, 1421.5 Z" fill="#333"></path>
            </g>
            <g>
               <path d="M205.5, 1433.5 L205.5 1463 Q205.5 1467
                209.5 1467
                L216 1467 " style="fill:none; stroke:#444; stroke-width:1"></path>
               <path d="M216, 1464 L224, 1467 L216, 1470 Z" fill="#333"></path>
            </g>
            <g>
               <path d="M117, 838.5 L117 1511.5 Q117 1515.5
                121 1515.5
                L129 1515.5 " style="fill:none; stroke:#444; stroke-width:1"></path>
               <path d="M129, 1512.5 L137, 1515.5 L129, 1518.5 Z" fill="#333"></path>
            </g>
            <g>
               <path d="M117, 838.5 L117 1560 Q117 1564
                121 1564
                L129 1564 " style="fill:none; stroke:#444; stroke-width:1"></path>
               <path d="M129, 1561 L137, 1564 L129, 1567 Z" fill="#333"></path>
            </g>
            <g>
               <path d="M117, 838.5 L117 1608.5 Q117 1612.5
                121 1612.5
                L129 1612.5 " style="fill:none; stroke:#444; stroke-width:1"></path>
               <path d="M129, 1609.5 L137, 1612.5 L129, 1615.5 Z" fill="#333"></path>
            </g>
            <g>
               <path d="M117, 838.5 L117 1657 Q117 1661
                121 1661
                L129 1661 " style="fill:none; stroke:#444; stroke-width:1"></path>
               <path d="M129, 1658 L137, 1661 L129, 1664 Z" fill="#333"></path>
            </g>
            <g>
               <path d="M117, 838.5 L117 1705.5 Q117 1709.5
                121 1709.5
                L129 1709.5 " style="fill:none; stroke:#444; stroke-width:1"></path>
               <path d="M129, 1706.5 L137, 1709.5 L129, 1712.5 Z" fill="#333"></path>
            </g>
            <g>
               <path d="M117, 838.5 L117 1754 Q117 1758
                121 1758
                L129 1758 " style="fill:none; stroke:#444; stroke-width:1"></path>
               <path d="M129, 1755 L137, 1758 L129, 1761 Z" fill="#333"></path>
            </g>
            <g>
               <path d="M117, 838.5 L117 1802.5 Q117 1806.5
                121 1806.5
                L129 1806.5 " style="fill:none; stroke:#444; stroke-width:1"></path>
               <path d="M129, 1803.5 L137, 1806.5 L129, 1809.5 Z" fill="#333"></path>
            </g>
            <g>
               <path d="M117, 838.5 L117 1851 Q117 1855
                121 1855
                L129 1855 " style="fill:none; stroke:#444; stroke-width:1"></path>
               <path d="M129, 1852 L137, 1855 L129, 1858 Z" fill="#333"></path>
            </g>
            <g>
               <path d="M68.5, 110 L68.5 1901 Q68.5 1905
                72.5 1905
                L79 1905 " style="fill:none; stroke:#444; stroke-width:1"></path>
               <path d="M79, 1902 L87, 1905 L79, 1908 Z" fill="#333"></path>
            </g>
            </svg>